<svg width="230" height="109" viewBox="0 0 230 109" fill="none" xmlns="http://www.w3.org/2000/svg">
<path d="M104.674 21.9902L103.658 21.09L114.207 9.22034H191.605V10.5829H114.818L104.674 21.9902Z" fill="#FD7014"/>
<path d="M9.90149 91.3938C15.3699 91.3938 19.803 86.9608 19.803 81.4923C19.803 76.0239 15.3699 71.5908 9.90149 71.5908C4.43305 71.5908 0 76.0239 0 81.4923C0 86.9608 4.43305 91.3938 9.90149 91.3938Z" fill="#FD7014"/>
<path d="M158.187 35.3515C163.657 35.3515 168.092 30.9172 168.092 25.4472C168.092 19.9773 163.657 15.543 158.187 15.543C152.717 15.543 148.283 19.9773 148.283 25.4472C148.283 30.9172 152.717 35.3515 158.187 35.3515Z" fill="#FD7014"/>
<path d="M191.602 19.8085C197.072 19.8085 201.506 15.3742 201.506 9.90425C201.506 4.43428 197.072 0 191.602 0C186.132 0 181.698 4.43428 181.698 9.90425C181.698 15.3742 186.132 19.8085 191.602 19.8085Z" fill="#FD7014"/>
<path d="M220.096 71.1862C225.566 71.1862 230 66.7519 230 61.2819C230 55.812 225.566 51.3777 220.096 51.3777C214.626 51.3777 210.192 55.812 210.192 61.2819C210.192 66.7519 214.626 71.1862 220.096 71.1862Z" fill="#FD7014"/>
<path d="M104.165 31.4426C109.634 31.4426 114.067 27.0096 114.067 21.5411C114.067 16.0727 109.634 11.6396 104.165 11.6396C98.697 11.6396 94.264 16.0727 94.264 21.5411C94.264 27.0096 98.697 31.4426 104.165 31.4426Z" fill="#FD7014"/>
<path d="M133.165 73.3702L132.149 72.4673L142.698 60.5977H220.096V61.963H143.306L133.165 73.3702Z" fill="#FD7014"/>
<path d="M132.656 82.8224C138.126 82.8224 142.56 78.3881 142.56 72.9182C142.56 67.4482 138.126 63.0139 132.656 63.0139C127.186 63.0139 122.751 67.4482 122.751 72.9182C122.751 78.3881 127.186 82.8224 132.656 82.8224Z" fill="#FD7014"/>
<path d="M69.6684 82.1674H9.90161V80.8103H69.1069L125.158 24.7651H149.844V26.125H125.719L69.6684 82.1674Z" fill="#FD7014"/>
<path d="M41.4225 108.323C46.8925 108.323 51.3267 103.889 51.3267 98.4187C51.3267 92.9487 46.8925 88.5144 41.4225 88.5144C35.9525 88.5144 31.5182 92.9487 31.5182 98.4187C31.5182 103.889 35.9525 108.323 41.4225 108.323Z" fill="#FD7014"/>
<path d="M77.7589 99.0967H41.4231V97.7369H77.1974L133.24 41.6945H196.979V43.0543H133.801L77.7589 99.0967Z" fill="#FD7014"/>
</svg>
